PathFileType	4	(X/Y/Z)	output.trc
DataRate	CameraRate	NumFrames	NumMarkers	Units	OrigDataRate	OrigDataStartFrame	OrigNumFrames
100	100	16	23	m	100	4246	4852
Frame#	Time	C7			T8			EL			EM			US			RS			AA			Fore_Clus_1			Fore_Clus_2			Fore_Clus_3			Fore_Clus_4			Hum_Clus_1			Hum_Clus_2			Hum_Clus_3			Hum_Clus_4			Thor_Clus_1			Thor_Clus_2			Thor_Clus_3			Thor_Clus_4			IJ			PX			GH			Thor_Clus_5		
		X1	Y1	Z1	X2	Y2	Z2	X3	Y3	Z3	X4	Y4	Z4	X5	Y5	Z5	X6	Y6	Z6	X7	Y7	Z7	X8	Y8	Z8	X9	Y9	Z9	X10	Y10	Z10	X11	Y11	Z11	X12	Y12	Z12	X13	Y13	Z13	X14	Y14	Z14	X15	Y15	Z15	X16	Y16	Z16	X17	Y17	Z17	X18	Y18	Z18	X19	Y19	Z19	X20	Y20	Z20	X21	Y21	Z21	X22	Y22	Z22	X23	Y23	Z23
4245	42.450000	-0.025424	1.591889	-0.031739	-0.060918	1.334442	-0.114403	-0.365529	1.323395	-0.072173	-0.309189	1.290237	-0.111321	-0.506269	1.097810	-0.179451	-0.472627	1.072132	-0.132315	-0.194401	1.506935	0.060465	-0.508329	1.147409	-0.136119	-0.534986	1.102103	-0.150548	-0.523017	1.087944	-0.129633	-0.488077	1.125293	-0.102036	-0.329898	1.375318	0.024946	-0.332778	1.418301	-0.017673	-0.307265	1.466869	0.014608	-0.293138	1.430031	0.058921	0.076658	1.453560	0.103723	0.025988	1.399275	0.144847	0.035194	1.451193	0.121299	0.085217	1.402543	0.119434	0.020554	1.488183	0.058269	0.030937	1.297451	0.085461	-0.161267	1.506056	0.061269	0.022019	1.421967	0.137645
4246	42.460000	-0.024867	1.592027	-0.031816	-0.060902	1.334639	-0.114433	-0.366155	1.326564	-0.074184	-0.309875	1.293030	-0.113097	-0.508518	1.102849	-0.183253	-0.475202	1.076556	-0.136224	-0.194221	1.507557	0.060141	-0.510403	1.152078	-0.139058	-0.537271	1.107197	-0.154425	-0.525429	1.092816	-0.133671	-0.491615	1.129728	-0.104762	-0.330698	1.377766	0.023382	-0.332793	1.420884	-0.018998	-0.307083	1.469176	0.013556	-0.293593	1.431989	0.057833	0.076610	1.453459	0.103864	0.025740	1.399345	0.144932	0.035138	1.451215	0.121347	0.085011	1.402453	0.119596	0.020687	1.488238	0.058311	0.030522	1.297490	0.085599	-0.161057	1.506749	0.061327	0.021858	1.422057	0.137723
4247	42.470000	-0.024315	1.592177	-0.031876	-0.060885	1.334861	-0.114479	-0.366746	1.329710	-0.076164	-0.310531	1.295795	-0.114840	-0.510724	1.107884	-0.187001	-0.477731	1.080979	-0.140090	-0.194044	1.508178	0.059820	-0.512205	1.156936	-0.142958	-0.539545	1.112204	-0.158334	-0.527937	1.097618	-0.137548	-0.493733	1.134037	-0.108423	-0.331385	1.380126	0.021779	-0.332829	1.423524	-0.020418	-0.306888	1.471344	0.012481	-0.294098	1.433975	0.056657	0.076573	1.453362	0.103982	0.025486	1.399402	0.145022	0.035055	1.451255	0.121393	0.084815	1.402387	0.119790	0.020815	1.488296	0.058358	0.030105	1.297532	0.085718	-0.160852	1.507419	0.061392	0.021707	1.422107	0.137769
4248	42.480000	-0.023766	1.592341	-0.031921	-0.060860	1.335107	-0.114546	-0.367303	1.332825	-0.078114	-0.311156	1.298523	-0.116548	-0.512882	1.112904	-0.190695	-0.480210	1.085397	-0.143911	-0.193871	1.508798	0.059494	-0.514044	1.161631	-0.146252	-0.541713	1.117338	-0.162063	-0.530223	1.102400	-0.141419	-0.495899	1.138305	-0.111878	-0.332071	1.382622	0.020210	-0.332897	1.426063	-0.021820	-0.306829	1.473518	0.011572	-0.294571	1.435792	0.055790	0.076528	1.453273	0.104123	0.025239	1.399481	0.145123	0.035049	1.451347	0.121531	0.084636	1.402291	0.119941	0.020938	1.488357	0.058408	0.029685	1.297574	0.085814	-0.160652	1.508067	0.061458	0.021528	1.422174	0.137854
4249	42.490000	-0.023219	1.592514	-0.031952	-0.060833	1.335373	-0.114630	-0.367824	1.335904	-0.080036	-0.311750	1.301206	-0.118220	-0.514992	1.117904	-0.194334	-0.482634	1.089802	-0.147684	-0.193702	1.509417	0.059165	-0.515892	1.166303	-0.149706	-0.543906	1.122309	-0.165691	-0.532596	1.107230	-0.145198	-0.497896	1.142581	-0.115360	-0.332815	1.385007	0.018695	-0.332859	1.428548	-0.023191	-0.306580	1.475734	0.010491	-0.295157	1.437710	0.054837	0.076474	1.453168	0.104202	0.025012	1.399526	0.145121	0.034981	1.451407	0.121644	0.084422	1.402176	0.120108	0.021055	1.488420	0.058461	0.029259	1.297616	0.085892	-0.160455	1.508693	0.061517	0.021329	1.422243	0.137926
4250	42.500000	-0.022677	1.592690	-0.031974	-0.060814	1.335648	-0.114722	-0.368307	1.338943	-0.081931	-0.312310	1.303841	-0.119858	-0.517054	1.122878	-0.197917	-0.485004	1.094187	-0.151413	-0.193538	1.510037	0.058839	-0.517669	1.170956	-0.152883	-0.545892	1.127323	-0.169416	-0.534576	1.111566	-0.148802	-0.499819	1.146812	-0.118731	-0.333408	1.387406	0.017119	-0.332880	1.431127	-0.024578	-0.306315	1.477959	0.009412	-0.295376	1.439741	0.053325	0.076578	1.453085	0.104470	0.024780	1.399582	0.145175	0.034885	1.451440	0.121711	0.084175	1.402046	0.120290	0.021164	1.488481	0.058516	0.028822	1.297656	0.085960	-0.160264	1.509301	0.061567	0.021114	1.422303	0.137991
4251	42.510000	-0.022135	1.592868	-0.031992	-0.060795	1.335932	-0.114826	-0.368752	1.341935	-0.083800	-0.312836	1.306419	-0.121460	-0.519056	1.127812	-0.201441	-0.487311	1.098545	-0.155087	-0.193377	1.510658	0.058504	-0.519341	1.175472	-0.156036	-0.548698	1.131868	-0.171984	-0.536969	1.116475	-0.152185	-0.501724	1.150997	-0.121963	-0.334098	1.389783	0.015604	-0.332844	1.433566	-0.025955	-0.306095	1.479995	0.008254	-0.295963	1.441549	0.052554	0.076547	1.452990	0.104557	0.024479	1.399619	0.145262	0.034797	1.451426	0.121753	0.083922	1.401900	0.120432	0.021268	1.488538	0.058571	0.028375	1.297692	0.086016	-0.160078	1.509892	0.061597	0.020890	1.422364	0.138047
4252	42.520000	-0.021596	1.593037	-0.032012	-0.060793	1.336209	-0.114928	-0.369159	1.344878	-0.085647	-0.313328	1.308940	-0.123032	-0.521002	1.132703	-0.204906	-0.489557	1.102867	-0.158711	-0.193220	1.511281	0.058171	-0.520973	1.180040	-0.159078	-0.549557	1.137145	-0.176449	-0.538917	1.121024	-0.155799	-0.503575	1.155249	-0.125224	-0.334703	1.392087	0.014110	-0.332806	1.436019	-0.027308	-0.305864	1.482038	0.007228	-0.296244	1.443501	0.051293	0.076455	1.452918	0.104796	0.024189	1.399658	0.145335	0.034683	1.451424	0.121785	0.083674	1.401763	0.120584	0.021365	1.488588	0.058624	0.027912	1.297722	0.086072	-0.159897	1.510470	0.061605	0.020651	1.422432	0.138100
4253	42.530000	-0.021055	1.593195	-0.032039	-0.060802	1.336475	-0.115031	-0.369528	1.347767	-0.087472	-0.313786	1.311399	-0.124573	-0.522883	1.137538	-0.208308	-0.491733	1.107147	-0.162275	-0.193064	1.511906	0.057832	-0.522529	1.184537	-0.162076	-0.552242	1.141635	-0.179126	-0.540769	1.125591	-0.159345	-0.505383	1.159359	-0.128371	-0.335329	1.394415	0.012638	-0.332783	1.438431	-0.028665	-0.305502	1.484164	0.006110	-0.296491	1.445390	0.049895	0.076284	1.452877	0.105155	0.023899	1.399668	0.145355	0.034578	1.451428	0.121856	0.083411	1.401611	0.120760	0.021457	1.488627	0.058673	0.027434	1.297744	0.086129	-0.159720	1.511038	0.061584	0.020430	1.422455	0.138150
4254	42.540000	-0.020511	1.593334	-0.032078	-0.060826	1.336722	-0.115128	-0.369861	1.350599	-0.089278	-0.314212	1.313796	-0.126087	-0.524694	1.142309	-0.211646	-0.493837	1.111377	-0.165776	-0.192908	1.512531	0.057486	-0.524070	1.189004	-0.165081	-0.553670	1.146586	-0.182796	-0.543028	1.130352	-0.162503	-0.507197	1.163487	-0.131483	-0.335802	1.396703	0.011114	-0.332647	1.440824	-0.029953	-0.305181	1.486186	0.005030	-0.296793	1.447295	0.048744	0.076234	1.452720	0.105265	0.023447	1.399836	0.145597	0.034438	1.451410	0.121897	0.083148	1.401459	0.120924	0.021545	1.488653	0.058716	0.026939	1.297756	0.086193	-0.159546	1.511596	0.061529	0.020216	1.422494	0.138197
4255	42.550000	-0.019964	1.593449	-0.032134	-0.060871	1.336940	-0.115213	-0.370160	1.353376	-0.091065	-0.314609	1.316132	-0.127579	-0.526438	1.147011	-0.214917	-0.495871	1.115551	-0.169213	-0.192752	1.513157	0.057139	-0.525471	1.193402	-0.168096	-0.555107	1.151442	-0.186300	-0.544870	1.134831	-0.165977	-0.508302	1.167561	-0.134767	-0.336399	1.398950	0.009631	-0.332523	1.443149	-0.031380	-0.304899	1.488145	0.003881	-0.297291	1.449009	0.048056	0.076190	1.452597	0.105415	0.023072	1.399860	0.145682	0.034332	1.451408	0.121960	0.082880	1.401302	0.121062	0.021630	1.488663	0.058751	0.026427	1.297756	0.086269	-0.159376	1.512149	0.061436	0.020031	1.422489	0.138232
4256	42.560000	-0.019409	1.593539	-0.032210	-0.060923	1.337128	-0.115292	-0.370428	1.356095	-0.092834	-0.314982	1.318408	-0.129050	-0.528103	1.151633	-0.218119	-0.497825	1.119664	-0.172576	-0.192591	1.513781	0.056778	-0.526842	1.197755	-0.171059	-0.556787	1.156075	-0.189628	-0.546435	1.139203	-0.169456	-0.510512	1.171570	-0.137626	-0.336938	1.401260	0.008177	-0.332418	1.445413	-0.032757	-0.304617	1.490131	0.002720	-0.297645	1.450866	0.046859	0.076160	1.452461	0.105541	0.022775	1.399876	0.145724	0.034227	1.451372	0.121992	0.082615	1.401140	0.121221	0.021714	1.488656	0.058777	0.025901	1.297743	0.086356	-0.159208	1.512694	0.061301	0.019829	1.422504	0.138265
4257	42.570000	-0.018849	1.593598	-0.032309	-0.060994	1.337279	-0.115355	-0.370669	1.358759	-0.094587	-0.315333	1.320631	-0.130508	-0.529699	1.156174	-0.221250	-0.499708	1.123711	-0.175866	-0.192425	1.514402	0.056411	-0.528150	1.202040	-0.173935	-0.558676	1.160768	-0.192784	-0.548307	1.143626	-0.172665	-0.512060	1.175557	-0.140621	-0.337355	1.403447	0.006674	-0.332258	1.447695	-0.034115	-0.304219	1.492102	0.001638	-0.297914	1.452682	0.045767	0.075849	1.452410	0.105696	0.022454	1.399859	0.145741	0.034104	1.451334	0.122034	0.082363	1.400975	0.121372	0.021799	1.488630	0.058794	0.025360	1.297717	0.086460	-0.159042	1.513235	0.061124	0.019614	1.422516	0.138299
4258	42.580000	-0.018280	1.593628	-0.032429	-0.061069	1.337394	-0.115408	-0.370888	1.361369	-0.096322	-0.315668	1.322802	-0.131953	-0.531219	1.160628	-0.224309	-0.501514	1.127691	-0.179079	-0.192254	1.515016	0.056031	-0.529420	1.206263	-0.176786	-0.560714	1.165434	-0.195872	-0.550163	1.148132	-0.175806	-0.513663	1.179491	-0.143554	-0.337900	1.405641	0.005202	-0.332079	1.449876	-0.035468	-0.303900	1.493930	0.000536	-0.298185	1.454457	0.044617	0.075178	1.452411	0.105862	0.022124	1.399848	0.145773	0.033968	1.451292	0.122097	0.082100	1.400794	0.121539	0.021886	1.488586	0.058802	0.024810	1.297678	0.086579	-0.158875	1.513771	0.060903	0.019385	1.422500	0.138315
4259	42.590000	-0.017701	1.593630	-0.032570	-0.061145	1.337476	-0.115454	-0.371088	1.363929	-0.098040	-0.315992	1.324930	-0.133392	-0.532669	1.164994	-0.227296	-0.503249	1.131603	-0.182213	-0.192075	1.515622	0.055636	-0.530561	1.210392	-0.179596	-0.562121	1.169824	-0.198885	-0.551809	1.152411	-0.178911	-0.514740	1.183379	-0.146522	-0.338273	1.407780	0.003785	-0.331874	1.452003	-0.036795	-0.303501	1.495817	-0.000688	-0.298461	1.456212	0.043449	0.075162	1.452210	0.105992	0.021752	1.399778	0.145833	0.033831	1.451245	0.122133	0.081796	1.400578	0.121726	0.021976	1.488524	0.058802	0.024254	1.297627	0.086710	-0.158708	1.514299	0.060638	0.019005	1.422598	0.138327
4260	42.600000	-0.017115	1.593606	-0.032728	-0.061222	1.337525	-0.115489	-0.371276	1.366444	-0.099741	-0.316311	1.327022	-0.134828	-0.534057	1.169278	-0.230210	-0.504919	1.135447	-0.185272	-0.191889	1.516217	0.055231	-0.531649	1.214402	-0.182299	-0.562925	1.174308	-0.202076	-0.553277	1.156600	-0.182026	-0.516005	1.187191	-0.149427	-0.338684	1.409910	0.002289	-0.331704	1.454163	-0.038169	-0.303172	1.497614	-0.001806	-0.298677	1.457894	0.042327	0.075062	1.452035	0.106142	0.021388	1.399762	0.145877	0.033677	1.451165	0.122190	0.081524	1.400391	0.121869	0.022068	1.488447	0.058795	0.023695	1.297565	0.086856	-0.158540	1.514820	0.060331	0.018788	1.422497	0.138360
